<svg id="visual" viewBox="0 0 900 450" width="900" height="450" xmlns="http://www.w3.org/2000/svg" xmlns:xlink="http://www.w3.org/1999/xlink" version="1.1"><rect x="0" y="0" width="900" height="450" fill="#ffba00"></rect><defs><linearGradient id="grad1_0" x1="50%" y1="0%" x2="100%" y2="100%"><stop offset="10%" stop-color="#87570e" stop-opacity="1"></stop><stop offset="90%" stop-color="#87570e" stop-opacity="1"></stop></linearGradient></defs><defs><linearGradient id="grad1_1" x1="50%" y1="0%" x2="100%" y2="100%"><stop offset="10%" stop-color="#87570e" stop-opacity="1"></stop><stop offset="90%" stop-color="#af760f" stop-opacity="1"></stop></linearGradient></defs><defs><linearGradient id="grad1_2" x1="50%" y1="0%" x2="100%" y2="100%"><stop offset="10%" stop-color="#d7970b" stop-opacity="1"></stop><stop offset="90%" stop-color="#af760f" stop-opacity="1"></stop></linearGradient></defs><defs><linearGradient id="grad1_3" x1="50%" y1="0%" x2="100%" y2="100%"><stop offset="10%" stop-color="#d7970b" stop-opacity="1"></stop><stop offset="90%" stop-color="#ffba00" stop-opacity="1"></stop></linearGradient></defs><defs><linearGradient id="grad2_0" x1="0%" y1="0%" x2="50%" y2="100%"><stop offset="10%" stop-color="#87570e" stop-opacity="1"></stop><stop offset="90%" stop-color="#87570e" stop-opacity="1"></stop></linearGradient></defs><defs><linearGradient id="grad2_1" x1="0%" y1="0%" x2="50%" y2="100%"><stop offset="10%" stop-color="#af760f" stop-opacity="1"></stop><stop offset="90%" stop-color="#87570e" stop-opacity="1"></stop></linearGradient></defs><defs><linearGradient id="grad2_2" x1="0%" y1="0%" x2="50%" y2="100%"><stop offset="10%" stop-color="#af760f" stop-opacity="1"></stop><stop offset="90%" stop-color="#d7970b" stop-opacity="1"></stop></linearGradient></defs><defs><linearGradient id="grad2_3" x1="0%" y1="0%" x2="50%" y2="100%"><stop offset="10%" stop-color="#ffba00" stop-opacity="1"></stop><stop offset="90%" stop-color="#d7970b" stop-opacity="1"></stop></linearGradient></defs><g transform="translate(900, 0)"><path d="M0 450C-25.9 429.1 -51.9 408.2 -80.2 403.1C-108.5 398 -139.2 408.7 -166.1 401C-193 393.2 -216.1 367 -221.7 331.8C-227.3 296.5 -215.5 252.1 -241.8 241.8C-268.2 231.5 -332.8 255.3 -373.3 249.5C-413.9 243.6 -430.3 208.2 -415.7 172.2C-401.2 136.2 -355.5 99.6 -356 70.8C-356.6 42 -403.3 21 -450 0L0 0Z" fill="#eba806"></path><path d="M0 337.5C-19.4 321.8 -38.9 306.2 -60.1 302.3C-81.4 298.5 -104.4 306.5 -124.6 300.7C-144.7 294.9 -162 275.3 -166.3 248.8C-170.5 222.4 -161.6 189.1 -181.4 181.4C-201.2 173.6 -249.6 191.5 -280 187.1C-310.4 182.7 -322.8 156.2 -311.8 129.2C-300.9 102.2 -266.6 74.7 -267 53.1C-267.4 31.5 -302.5 15.8 -337.5 0L0 0Z" fill="#c3860e"></path><path d="M0 225C-13 214.6 -25.9 204.1 -40.1 201.6C-54.2 199 -69.6 204.4 -83 200.5C-96.5 196.6 -108 183.5 -110.8 165.9C-113.6 148.2 -107.7 126.1 -120.9 120.9C-134.1 115.8 -166.4 127.6 -186.7 124.7C-206.9 121.8 -215.2 104.1 -207.9 86.1C-200.6 68.1 -177.7 49.8 -178 35.4C-178.3 21 -201.6 10.5 -225 0L0 0Z" fill="#9b660f"></path><path d="M0 112.5C-6.5 107.3 -13 102.1 -20 100.8C-27.1 99.5 -34.8 102.2 -41.5 100.2C-48.2 98.3 -54 91.8 -55.4 82.9C-56.8 74.1 -53.9 63 -60.5 60.5C-67.1 57.9 -83.2 63.8 -93.3 62.4C-103.5 60.9 -107.6 52.1 -103.9 43.1C-100.3 34.1 -88.9 24.9 -89 17.7C-89.1 10.5 -100.8 5.3 -112.5 0L0 0Z" fill="#87570e"></path></g><g transform="translate(0, 450)"><path d="M0 -450C28 -431.2 56.1 -412.5 77.8 -391.3C99.6 -370.2 115.1 -346.7 143.1 -345.5C171.1 -344.4 211.6 -365.5 244.5 -365.8C277.3 -366.2 302.6 -345.6 318.2 -318.2C333.8 -290.8 339.8 -256.6 333.4 -222.8C327 -189 308.3 -155.5 323.4 -133.9C338.4 -112.4 387.2 -102.7 413.9 -82.3C440.6 -62 445.3 -31 450 0L0 0Z" fill="#eba806"></path><path d="M0 -337.5C21 -323.4 42 -309.4 58.4 -293.5C74.7 -277.6 86.3 -260 107.3 -259.1C128.3 -258.3 158.7 -274.2 183.3 -274.4C208 -274.6 226.9 -259.2 238.6 -238.6C250.4 -218.1 254.8 -192.5 250.1 -167.1C245.3 -141.7 231.2 -116.6 242.5 -100.5C253.8 -84.3 290.4 -77 310.4 -61.7C330.5 -46.5 334 -23.2 337.5 0L0 0Z" fill="#c3860e"></path><path d="M0 -225C14 -215.6 28 -206.2 38.9 -195.7C49.8 -185.1 57.6 -173.3 71.6 -172.8C85.6 -172.2 105.8 -182.8 122.2 -182.9C138.7 -183.1 151.3 -172.8 159.1 -159.1C166.9 -145.4 169.9 -128.3 166.7 -111.4C163.5 -94.5 154.2 -77.8 161.7 -67C169.2 -56.2 193.6 -51.3 206.9 -41.2C220.3 -31 222.7 -15.5 225 0L0 0Z" fill="#9b660f"></path><path d="M0 -112.5C7 -107.8 14 -103.1 19.5 -97.8C24.9 -92.5 28.8 -86.7 35.8 -86.4C42.8 -86.1 52.9 -91.4 61.1 -91.5C69.3 -91.5 75.6 -86.4 79.5 -79.5C83.5 -72.7 84.9 -64.2 83.4 -55.7C81.8 -47.2 77.1 -38.9 80.8 -33.5C84.6 -28.1 96.8 -25.7 103.5 -20.6C110.2 -15.5 111.3 -7.7 112.5 0L0 0Z" fill="#87570e"></path></g></svg>